<svg width="40" height="40" viewBox="0 0 40 40" fill="none" xmlns="http://www.w3.org/2000/svg">
<path d="M14.5007 0.150547C14.4 0.274338 14.3776 1.62479 14.4336 5.64237C14.4783 8.80467 14.4671 11.0216 14.4 11.1117C14.3329 11.213 12.8 11.4043 9.27553 11.7531C1.07413 12.5747 0.514685 12.6422 0.234965 12.9235L0 13.1711L0.503497 14.1389C1.40979 15.9058 3.46853 19.0456 4.47552 20.2159L4.83357 20.6323L6.10909 20.4298C10.3832 19.777 13.4713 19.3494 13.751 19.3719C14.0867 19.4057 14.0755 19.4169 12.9231 20.8124C10.0811 24.2448 6.33287 28.1948 2.56224 31.751C1.36504 32.8651 0.391608 33.8555 0.391608 33.9342C0.391608 34.3619 6.18741 37.8956 8.32448 38.7621L9.04056 39.0547L9.37622 38.7396C9.83497 38.3119 11.849 35.5998 13.035 33.8104C14.0643 32.2574 15.6531 29.6353 16.5594 27.981C16.8615 27.4408 17.1301 27.0019 17.1636 27.0019C17.1972 27.0019 17.4545 27.3958 17.7343 27.8685C18.607 29.399 19.4573 30.6144 20.8671 32.4037C22.9818 35.0709 27.021 39.0209 28.442 39.7974L28.8112 40L29.7846 39.5048C33.2084 37.7943 40 33.0227 40 32.325C40 32.1224 39.7203 32.0099 38.0979 31.6047C36.2629 31.1546 29.1804 29.2527 27.1888 28.6787C23.0825 27.4971 17.958 25.7528 17.958 25.5502C17.958 25.4377 21.5385 18.3366 21.6056 18.3366C21.628 18.3366 22.5678 18.2128 23.6867 18.0665C27.3678 17.5713 28.0168 17.5038 28.1958 17.6613C28.3413 17.7851 28.3636 18.5054 28.3636 22.6693C28.3636 27.1595 28.3748 27.5421 28.565 27.6997C28.7888 27.9135 30.1203 28.2849 33.5105 29.0839C35.9273 29.6578 36.0392 29.6691 36.2406 29.4778C36.4755 29.2527 36.4084 29.7028 37.5385 20.0246C37.9748 16.3447 38.4 12.721 38.4895 11.9782C38.7357 10.0201 38.7133 9.77248 38.3441 9.41236L38.042 9.11977L31.1832 9.74998C27.4126 10.0988 24.3133 10.3577 24.2797 10.3239C24.2462 10.2902 24.4476 9.31108 24.7273 8.15195C25.3986 5.37228 25.6783 4.05559 25.6783 3.74049C25.6783 2.76141 20.5538 0.724487 16.7161 0.1618C15.228 -0.0520205 14.6685 -0.0520201 14.5007 0.150547Z" fill="white"/>
</svg>
