<svg width="80" height="80" viewBox="0 0 80 80" fill="none" xmlns="http://www.w3.org/2000/svg">
<rect width="80" height="80" rx="15" fill="url(#paint0_linear_168_77)"/>
<path d="M34.5007 20.1505C34.4 20.2743 34.3776 21.6248 34.4336 25.6424C34.4783 28.8047 34.4671 31.0216 34.4 31.1117C34.3329 31.213 32.8 31.4043 29.2755 31.7531C21.0741 32.5747 20.5147 32.6422 20.235 32.9235L20 33.1711L20.5035 34.1389C21.4098 35.9058 23.4685 39.0456 24.4755 40.2159L24.8336 40.6323L26.1091 40.4298C30.3832 39.7771 33.4713 39.3494 33.751 39.3719C34.0867 39.4057 34.0755 39.4169 32.9231 40.8124C30.0811 44.2448 26.3329 48.1948 22.5622 51.751C21.365 52.8651 20.3916 53.8555 20.3916 53.9342C20.3916 54.3619 26.1874 57.8956 28.3245 58.7621L29.0406 59.0547L29.3762 58.7396C29.835 58.3119 31.849 55.5998 33.035 53.8104C34.0643 52.2574 35.6531 49.6353 36.5594 47.981C36.8615 47.4408 37.1301 47.0019 37.1636 47.0019C37.1972 47.0019 37.4545 47.3958 37.7343 47.8685C38.607 49.399 39.4573 50.6144 40.8671 52.4037C42.9818 55.0709 47.021 59.0209 48.442 59.7974L48.8112 60L49.7846 59.5048C53.2084 57.7943 60 53.0227 60 52.325C60 52.1224 59.7203 52.0099 58.0979 51.6047C56.2629 51.1546 49.1804 49.2527 47.1888 48.6787C43.0825 47.4971 37.958 45.7528 37.958 45.5502C37.958 45.4377 41.5385 38.3366 41.6056 38.3366C41.628 38.3366 42.5678 38.2128 43.6867 38.0665C47.3678 37.5713 48.0168 37.5038 48.1958 37.6613C48.3413 37.7851 48.3636 38.5054 48.3636 42.6693C48.3636 47.1595 48.3748 47.5421 48.565 47.6997C48.7888 47.9135 50.1203 48.2849 53.5105 49.0839C55.9273 49.6578 56.0392 49.6691 56.2406 49.4778C56.4755 49.2527 56.4084 49.7028 57.5385 40.0246C57.9748 36.3447 58.4 32.721 58.4895 31.9782C58.7357 30.0201 58.7133 29.7725 58.3441 29.4124L58.042 29.1198L51.1832 29.75C47.4126 30.0988 44.3133 30.3577 44.2797 30.3239C44.2462 30.2902 44.4476 29.3111 44.7273 28.1519C45.3986 25.3723 45.6783 24.0556 45.6783 23.7405C45.6783 22.7614 40.5538 20.7245 36.7161 20.1618C35.228 19.948 34.6685 19.948 34.5007 20.1505Z" fill="white"/>
<defs>
<linearGradient id="paint0_linear_168_77" x1="40" y1="0" x2="40" y2="80" gradientUnits="userSpaceOnUse">
<stop stop-color="#1F222B"/>
<stop offset="1"/>
</linearGradient>
</defs>
</svg>
